<svg version="1.1"
     baseProfile="full"
     width="550" height="500"
     xmlns="http://www.w3.org/2000/svg">
<path
   style="fill:#ff4d2e;fill-rule:evenodd;stroke:#000000;stroke-width:0.89843512px;stroke-linecap:butt;stroke-linejoin:miter;stroke-opacity:0"
   d="m 147.51021,88.760873 c 0.34396,19.367697 23.20624,25.629257 23.20624,25.629257 -9.97481,24.94821 -64.3097,41.68529 -64.3097,41.68529 13.75836,60.07269 112.04318,43.48194 124.76967,31.33609 0,0 11.04763,56.72549 64.0492,69.40362 31.00255,-15.00627 29.10244,-77.52779 29.10244,-77.52779 61.56865,44.31591 101.94196,-17.69172 98.50237,-35.74635 -15.82211,3.28266 -49.61601,-18.80165 -49.61601,-18.80165 27.86069,-1.9696 35.26628,-26.229463 35.26628,-26.229463 C 551.49156,144.00523 484.13344,338.29271 463.20425,370.78563 424.14263,431.42947 341.25236,471.16798 266.68592,472.91806 195.05761,474.59918 116.41011,438.2486 73.086195,383.78431 30.853872,330.6923 13.890094,250.13979 36.117403,186.94728 52.20264,141.21675 92.057025,96.188686 147.51021,88.760873 Z"
   id="path3348"
    />
<path
   style="fill:#00981c;fill-rule:evenodd;stroke:#000000;stroke-width:0.89843512px;stroke-linecap:butt;stroke-linejoin:miter;stroke-opacity:0"
   d="m 155.53633,44.426116 c 1.21607,73.813884 94.36771,53.155285 88.53053,62.672174 -73.93758,0 -46.45421,41.3172 -102.15061,55.47647 83.90943,37.60331 114.06818,-43.40628 114.06818,-43.40628 -22.37585,79.61687 34.0502,106.07845 34.0502,106.07845 0,0 22.37586,-47.12018 -10.21505,-108.86388 0,0 58.37177,80.08111 118.20284,42.24568 -29.18589,-6.26722 -43.53561,-41.31721 -79.53154,-45.03111 24.32157,1.85695 57.64213,7.1957 75.88331,-36.906942 -43.77884,16.944697 -66.15468,-18.105293 -111.63603,21.819199 1.94573,-38.299659 34.29343,-68.707266 34.29343,-68.707266 -9.72863,-6.035098 -17.75476,-3.481787 -17.75476,-3.481787 -24.07836,17.408935 -44.50847,68.010909 -44.50847,68.010909 -33.80699,-50.834092 -80.2612,-8.588409 -99.23203,-49.905617 z"
   id="path3438" />
 </svg>
